HIERARCHY
ROOT Hips
{
 OFFSET 0.000000 0.000000 0.000000
 CHANNELS 6 Xposition Yposition Zposition Yrotation Xrotation Zrotation
 JOINT Chest
 {
  OFFSET 0.000000 9.585900 0.002600
  CHANNELS 3 Yrotation Xrotation Zrotation
  JOINT Chest2
  {
   OFFSET 0.000000 9.601200 -0.005300
   CHANNELS 3 Yrotation Xrotation Zrotation
   JOINT Chest3
   {
    OFFSET 0.000000 9.561800 0.000000
    CHANNELS 3 Yrotation Xrotation Zrotation
    JOINT Chest4
    {
     OFFSET 0.000000 9.552100 0.000000
     CHANNELS 3 Yrotation Xrotation Zrotation
     JOINT Neck
     {
      OFFSET 0.000000 14.453000 0.000000
      CHANNELS 3 Yrotation Xrotation Zrotation
      JOINT Head
      {
       OFFSET 0.000000 8.936500 -0.011300
       CHANNELS 3 Yrotation Xrotation Zrotation
       End Site
       {
        OFFSET 0.000000 17.073600 -0.006000
       }
      }
     }
     JOINT RightCollar
     {
      OFFSET -2.921100 9.558500 0.000000
      CHANNELS 3 Yrotation Xrotation Zrotation
      JOINT RightShoulder
      {
       OFFSET -13.519700 0.000000 0.000000
       CHANNELS 3 Yrotation Xrotation Zrotation
       JOINT RightElbow
       {
        OFFSET 0.000000 -29.696600 0.000000
        CHANNELS 3 Yrotation Xrotation Zrotation
        JOINT RightWrist
        {
         OFFSET 0.000000 -24.004700 0.000000
         CHANNELS 3 Yrotation Xrotation Zrotation
         End Site
         {
          OFFSET 0.000000 -17.728500 0.000000
         }
        }
       }
      }
     }
     JOINT LeftCollar
     {
      OFFSET 2.921100 9.558500 0.000000
      CHANNELS 3 Yrotation Xrotation Zrotation
      JOINT LeftShoulder
      {
       OFFSET 13.519700 0.000000 0.000000
       CHANNELS 3 Yrotation Xrotation Zrotation
       JOINT LeftElbow
       {
        OFFSET 0.000000 -29.696600 0.000000
        CHANNELS 3 Yrotation Xrotation Zrotation
        JOINT LeftWrist
        {
         OFFSET 0.000000 -24.004700 0.000000
         CHANNELS 3 Yrotation Xrotation Zrotation
         End Site
         {
          OFFSET 0.000000 -17.728500 0.000000
         }
        }
       }
      }
     }
    }
   }
  }
 }
 JOINT RightHip
 {
  OFFSET -7.771700 -0.012900 -0.001300
  CHANNELS 3 Yrotation Xrotation Zrotation
  JOINT RightKnee
  {
   OFFSET 0.000000 -40.869800 0.001200
   CHANNELS 3 Yrotation Xrotation Zrotation
   JOINT RightAnkle
   {
    OFFSET 0.000000 -39.717900 0.002100
    CHANNELS 3 Yrotation Xrotation Zrotation
    JOINT RightToe
    {
     OFFSET 0.000000 -4.965400 11.033500
     CHANNELS 3 Yrotation Xrotation Zrotation
     End Site
     {
      OFFSET 0.000000 -1.423100 5.872300
     }
    }
   }
  }
 }
 JOINT LeftHip
 {
  OFFSET 7.771700 -0.012900 -0.001300
  CHANNELS 3 Yrotation Xrotation Zrotation
  JOINT LeftKnee
  {
   OFFSET 0.000000 -40.869800 0.001200
   CHANNELS 3 Yrotation Xrotation Zrotation
   JOINT LeftAnkle
   {
    OFFSET 0.000000 -39.717900 0.002100
    CHANNELS 3 Yrotation Xrotation Zrotation
    JOINT LeftToe
    {
     OFFSET 0.000000 -4.965400 11.033500
     CHANNELS 3 Yrotation Xrotation Zrotation
     End Site
     {
      OFFSET 0.000000 -1.423100 5.872300
     }
    }
   }
  }
 }
}
MOTION
Frames: 6
Frame Time: 0.008333
-71.013966 50.223552 -5.063225 166.323965 -7.044418 -0.333868 2.761222 5.532711 0.209969 0.109827 0.194811 -0.012954 0.156839 0.374789 -0.045045 2.464141 5.362064 -0.447332 0.948350 22.120514 0.207427 1.579972 5.324550 0.092705 2.943788 3.890604 0.917406 -3.466751 -11.175605 -18.503448 24.170801 -58.828750 1.544381 0.667532 3.229680 -19.322242 -5.985705 -0.460832 -0.189433 12.081643 -10.791531 13.314625 -9.800129 -61.545230 -14.052542 2.707411 0.413110 14.527925 -1.508442 -73.495364 -5.023512 -129.407291 80.181670 -128.563390 -2.984725 -17.099607 1.754334 -0.348618 0.754697 -0.113709 -8.259620 -77.438340 23.913207 121.655359 79.442848 118.219093 -16.577897 -22.894286 1.099043 -0.224395 -0.862052 -0.093224
-71.015383 50.225208 -5.062885 166.329713 -7.065392 -0.328491 2.769639 5.542913 0.213969 0.118697 0.182428 -0.004709 0.148579 0.387821 -0.052831 2.490020 5.355420 -0.432051 0.876564 22.097873 0.191550 1.481177 5.299394 0.079515 2.908094 3.868608 0.868847 -3.147102 -10.977241 -18.779717 25.673809 -58.430538 0.601023 0.769902 3.201045 -19.590802 -6.037976 -0.527420 -0.147966 11.365434 -10.954166 13.731449 -14.519954 -61.483364 -9.809426 2.330857 0.627564 14.323794 -1.534303 -73.486029 -4.994661 -129.395635 80.166295 -128.569903 -3.005853 -17.075525 1.751652 -0.329331 0.731816 -0.108998 -8.209301 -77.418527 23.872951 121.700494 79.457740 118.258727 -16.597293 -22.899647 1.109682 -0.189104 -0.873524 -0.089165
-71.014933 50.227623 -5.062569 166.342391 -7.089372 -0.338513 2.781873 5.543159 0.242616 0.104955 0.193585 -0.013585 0.173545 0.355092 -0.032618 2.491013 5.336331 -0.417636 0.793566 22.121878 0.157034 1.391113 5.288569 0.067681 2.865182 3.841618 0.754514 -2.863189 -10.741690 -18.972939 27.073166 -58.049501 -0.207590 0.860616 3.191991 -19.898402 -6.094282 -0.545491 -0.123231 10.657700 -11.097531 14.136993 -19.276835 -61.338499 -5.598004 1.888512 0.891751 14.108962 -1.593194 -73.465261 -4.944618 -129.381101 80.160181 -128.568326 -2.998140 -17.060498 1.758240 -0.336646 0.715854 -0.118793 -8.221619 -77.393074 23.881878 121.720181 79.465070 118.268241 -16.548002 -22.915303 1.100841 -0.244047 -0.875759 -0.091445
-71.021800 50.230228 -5.063023 166.375687 -7.107904 -0.311048 2.774031 5.509604 0.242110 0.084862 0.234745 -0.033943 0.179911 0.329523 -0.021756 2.479407 5.328894 -0.415700 0.745884 22.124558 0.144529 1.308405 5.293402 0.058182 2.836590 3.794691 0.656757 -2.602233 -10.533532 -19.129451 28.330650 -57.660581 -0.835550 0.953637 3.223008 -20.205675 -6.124269 -0.568921 -0.088466 9.959685 -11.226848 14.531896 -24.036972 -61.103495 -1.443224 1.416405 1.186318 13.883048 -1.542281 -73.450008 -5.033452 -129.375431 80.151103 -128.580935 -2.994657 -17.065924 1.763744 -0.335093 0.716628 -0.120580 -8.090988 -77.377029 23.723302 121.708387 79.469642 118.240504 -16.565798 -22.906004 1.117559 -0.266059 -0.896151 -0.097013
-71.027842 50.232340 -5.059623 166.398058 -7.106178 -0.294933 2.756337 5.476636 0.237789 0.091891 0.237727 -0.034420 0.169994 0.321963 -0.020217 2.463798 5.309507 -0.409457 0.704195 22.135067 0.132405 1.236324 5.312738 0.047710 2.803345 3.772552 0.572188 -2.368111 -10.374077 -19.264139 29.453622 -57.256045 -1.296862 1.090869 3.305604 -20.503756 -6.148925 -0.591399 -0.057191 9.279891 -11.316523 14.898220 -28.706324 -60.759193 2.579210 0.962489 1.483395 13.650910 -1.551233 -73.453877 -5.051767 -129.345858 80.150196 -128.568455 -2.999887 -17.073239 1.759161 -0.328111 0.723813 -0.118962 -7.969736 -77.382073 23.598024 121.672397 79.477488 118.185683 -16.582590 -22.903264 1.137827 -0.286732 -0.895463 -0.093275
-71.030114 50.234200 -5.056937 166.417604 -7.115522 -0.300067 2.738286 5.450123 0.254910 0.092655 0.209700 -0.023180 0.164823 0.344173 -0.030111 2.437891 5.285918 -0.402176 0.668647 22.152537 0.120860 1.175139 5.345141 0.036580 2.765905 3.752324 0.489730 -2.157575 -10.244984 -19.365139 30.533203 -56.846982 -1.687925 1.308085 3.476369 -20.810548 -6.164837 -0.617500 -0.029539 8.614804 -11.363763 15.230107 -33.166720 -60.294245 6.369867 0.556598 1.761583 13.419280 -1.659720 -73.446650 -4.961730 -129.293035 80.146611 -128.542109 -3.005262 -17.070836 1.758625 -0.324724 0.718871 -0.125344 -7.853681 -77.375329 23.494110 121.624735 79.496392 118.140355 -16.602661 -22.912779 1.149488 -0.299384 -0.882182 -0.082587
